<svg width="146" height="36" viewBox="0 0 146 36" fill="none" xmlns="http://www.w3.org/2000/svg">
<path d="M11.3062 2.29037C11.4346 2.17597 11.6364 2.26795 11.6364 2.43997V11.7586C11.6364 11.9951 11.5296 12.2212 11.3498 12.3749C6.27159 16.715 4.70712 19.6664 2.42619 24.5056C2.40509 24.5504 2.47011 24.5839 2.49799 24.543C7.92277 16.5845 11.8325 12.7089 21.5637 9.42462C21.7709 9.35468 21.9887 9.50804 21.9887 9.72675V17.0313C21.9887 17.4138 21.7178 17.7427 21.3435 17.8212C14.22 19.3142 10.3651 21.2867 4.30651 25.7909C4.26664 25.8206 4.30675 25.8813 4.35052 25.8579C13.2646 21.0778 18.8829 19.1238 31.3497 21.5331C31.7249 21.6056 32 21.9363 32 22.3184V32.4887C32 32.7427 31.7146 32.8938 31.4996 32.7584C20.1893 25.6353 11.7003 25.7392 0.459734 30.3392C0.244675 30.4272 0.00635827 30.2633 0.0134907 30.031C0.442652 16.0557 4.99214 7.91311 11.3062 2.29037Z" fill="url(#paint0_linear_1228_226)"/>
<path d="M49 9.248V11.96H42.016V16.256H47.368V18.92H42.016V26H38.656V9.248H49ZM53.0866 11.12C52.4946 11.12 51.9986 10.936 51.5986 10.568C51.2146 10.184 51.0226 9.712 51.0226 9.152C51.0226 8.592 51.2146 8.128 51.5986 7.76C51.9986 7.376 52.4946 7.184 53.0866 7.184C53.6786 7.184 54.1666 7.376 54.5506 7.76C54.9506 8.128 55.1506 8.592 55.1506 9.152C55.1506 9.712 54.9506 10.184 54.5506 10.568C54.1666 10.936 53.6786 11.12 53.0866 11.12ZM54.7426 12.704V26H51.3826V12.704H54.7426ZM61.4223 14.768C61.8543 14.064 62.4143 13.512 63.1023 13.112C63.8063 12.712 64.6063 12.512 65.5023 12.512V16.04H64.6143C63.5583 16.04 62.7583 16.288 62.2143 16.784C61.6863 17.28 61.4223 18.144 61.4223 19.376V26H58.0623V12.704H61.4223V14.768ZM80.1254 19.064C80.1254 19.544 80.0934 19.976 80.0294 20.36H70.3094C70.3894 21.32 70.7254 22.072 71.3174 22.616C71.9094 23.16 72.6374 23.432 73.5014 23.432C74.7494 23.432 75.6374 22.896 76.1654 21.824H79.7894C79.4054 23.104 78.6694 24.16 77.5814 24.992C76.4934 25.808 75.1574 26.216 73.5734 26.216C72.2934 26.216 71.1414 25.936 70.1174 25.376C69.1094 24.8 68.3174 23.992 67.7414 22.952C67.1814 21.912 66.9014 20.712 66.9014 19.352C66.9014 17.976 67.1814 16.768 67.7414 15.728C68.3014 14.688 69.0854 13.888 70.0934 13.328C71.1014 12.768 72.2614 12.488 73.5734 12.488C74.8374 12.488 75.9654 12.76 76.9574 13.304C77.9654 13.848 78.7414 14.624 79.2854 15.632C79.8454 16.624 80.1254 17.768 80.1254 19.064ZM76.6454 18.104C76.6294 17.24 76.3174 16.552 75.7094 16.04C75.1014 15.512 74.3574 15.248 73.4774 15.248C72.6454 15.248 71.9414 15.504 71.3654 16.016C70.8054 16.512 70.4614 17.208 70.3334 18.104H76.6454ZM86.4899 15.464V21.896C86.4899 22.344 86.5939 22.672 86.8019 22.88C87.0259 23.072 87.3939 23.168 87.9059 23.168H89.4659V26H87.3539C84.5219 26 83.1059 24.624 83.1059 21.872V15.464H81.5219V12.704H83.1059V9.416H86.4899V12.704H89.4659V15.464H86.4899ZM99.3706 12.512C100.379 12.512 101.275 12.736 102.059 13.184C102.843 13.616 103.451 14.264 103.883 15.128C104.331 15.976 104.555 17 104.555 18.2V26H101.195V18.656C101.195 17.6 100.931 16.792 100.403 16.232C99.8746 15.656 99.1546 15.368 98.2426 15.368C97.3146 15.368 96.5786 15.656 96.0346 16.232C95.5066 16.792 95.2426 17.6 95.2426 18.656V26H91.8826V8.24H95.2426V14.36C95.6746 13.784 96.2506 13.336 96.9706 13.016C97.6906 12.68 98.4906 12.512 99.3706 12.512ZM111.11 14.768C111.542 14.064 112.102 13.512 112.79 13.112C113.494 12.712 114.294 12.512 115.19 12.512V16.04H114.302C113.246 16.04 112.446 16.288 111.902 16.784C111.374 17.28 111.11 18.144 111.11 19.376V26H107.75V12.704H111.11V14.768ZM129.813 19.064C129.813 19.544 129.781 19.976 129.717 20.36H119.997C120.077 21.32 120.413 22.072 121.005 22.616C121.597 23.16 122.325 23.432 123.189 23.432C124.437 23.432 125.325 22.896 125.853 21.824H129.477C129.093 23.104 128.357 24.16 127.269 24.992C126.181 25.808 124.845 26.216 123.261 26.216C121.981 26.216 120.829 25.936 119.805 25.376C118.797 24.8 118.005 23.992 117.429 22.952C116.869 21.912 116.589 20.712 116.589 19.352C116.589 17.976 116.869 16.768 117.429 15.728C117.989 14.688 118.773 13.888 119.781 13.328C120.789 12.768 121.949 12.488 123.261 12.488C124.525 12.488 125.653 12.76 126.645 13.304C127.653 13.848 128.429 14.624 128.973 15.632C129.533 16.624 129.813 17.768 129.813 19.064ZM126.333 18.104C126.317 17.24 126.005 16.552 125.397 16.04C124.789 15.512 124.045 15.248 123.165 15.248C122.333 15.248 121.629 15.504 121.053 16.016C120.493 16.512 120.149 17.208 120.021 18.104H126.333ZM144.625 19.064C144.625 19.544 144.593 19.976 144.529 20.36H134.809C134.889 21.32 135.225 22.072 135.817 22.616C136.409 23.16 137.137 23.432 138.001 23.432C139.249 23.432 140.137 22.896 140.665 21.824H144.289C143.905 23.104 143.169 24.16 142.081 24.992C140.993 25.808 139.657 26.216 138.073 26.216C136.793 26.216 135.641 25.936 134.617 25.376C133.609 24.8 132.817 23.992 132.241 22.952C131.681 21.912 131.401 20.712 131.401 19.352C131.401 17.976 131.681 16.768 132.241 15.728C132.801 14.688 133.585 13.888 134.593 13.328C135.601 12.768 136.761 12.488 138.073 12.488C139.337 12.488 140.465 12.76 141.457 13.304C142.465 13.848 143.241 14.624 143.785 15.632C144.345 16.624 144.625 17.768 144.625 19.064ZM141.145 18.104C141.129 17.24 140.817 16.552 140.209 16.04C139.601 15.512 138.857 15.248 137.977 15.248C137.145 15.248 136.441 15.504 135.865 16.016C135.305 16.512 134.961 17.208 134.833 18.104H141.145Z" fill="white"/>
<defs>
<linearGradient id="paint0_linear_1228_226" x1="32.8025" y1="0.756115" x2="4.55423" y2="24.7511" gradientUnits="userSpaceOnUse">
<stop offset="0.118018" stop-color="#F2BE47"/>
<stop offset="0.598583" stop-color="#EA7938"/>
<stop offset="1" stop-color="#E13D2F"/>
</linearGradient>
</defs>
</svg>
